<svg id="Capa_1" enable-background="new 0 0 512 512" height="512" viewBox="0 0 512 512" width="512" xmlns="http://www.w3.org/2000/svg" xmlns:xlink="http://www.w3.org/1999/xlink"><linearGradient id="SVGID_1_" gradientUnits="userSpaceOnUse" x1="256" x2="256" y1="421" y2="91"><stop offset="0" stop-color="#fd5900"/><stop offset="1" stop-color="#ffde00"/></linearGradient><g><g><path d="m510.846 100.272c-1.52-3.673-4.446-6.599-8.119-8.119-1.832-.757-3.775-1.153-5.727-1.153h-482c-1.952 0-3.895.396-5.728 1.154-3.673 1.52-6.599 4.446-8.119 8.119-.757 1.832-1.153 3.775-1.153 5.727v300c0 8.291 6.709 15 15 15h482c8.291 0 15-6.709 15-15v-300c0-1.952-.396-3.895-1.154-5.728zm-50.057 20.728-204.789 203.789-204.789-203.789zm21.211 270h-452v-248.789l215.395 214.395c2.93 2.93 6.768 4.395 10.605 4.395s7.676-1.465 10.605-4.395l215.395-214.395z" fill="url(#SVGID_1_)"/></g></g></svg>