<svg id="Capa_1" enable-background="new 0 0 511.964 511.964" height="512" viewBox="0 0 511.964 511.964" width="512" xmlns="http://www.w3.org/2000/svg" xmlns:xlink="http://www.w3.org/1999/xlink"><linearGradient id="lg1"><stop offset="0" stop-color="#fd3a84"/><stop offset="1" stop-color="#ffa68d"/></linearGradient><linearGradient id="SVGID_1_" gradientUnits="userSpaceOnUse" x1="255.982" x2="255.982" xlink:href="#lg1" y1="511.964" y2="0"/><linearGradient id="SVGID_2_" gradientUnits="userSpaceOnUse" x1="255.982" x2="255.982" xlink:href="#lg1" y1="240" y2="90"/><g><path d="m241.553 501.116c4.137 14.446 24.71 14.483 28.857 0l52.471-185.662c59.839-26.587 98.101-84.844 98.101-150.454 0-90.981-74.019-165-165-165s-165 74.019-165 165c0 65.61 38.262 123.867 98.101 150.454zm-120.571-336.116c0-74.443 60.557-135 135-135s135 60.557 135 135c0 55.693-33.765 104.927-86.016 125.435-4.351 1.699-7.661 5.347-8.95 9.844l-40.034 142.127-40.034-142.127c-1.289-4.497-4.6-8.145-8.95-9.844-52.251-20.508-86.016-69.742-86.016-125.435z" fill="url(#SVGID_1_)"/><path d="m330.982 165c0-41.353-33.647-75-75-75s-75 33.647-75 75 33.647 75 75 75 75-33.647 75-75zm-120 0c0-24.814 20.186-45 45-45s45 20.186 45 45-20.186 45-45 45-45-20.186-45-45z" fill="url(#SVGID_2_)"/></g></svg>