<svg viewBox="-91 0 512 512" xmlns="http://www.w3.org/2000/svg"><path d="m127.726562 251.175781c-4.875-7.191406-7.726562-15.855469-7.726562-25.175781 0-24.8125 20.1875-45 45-45s45 20.1875 45 45c0 9.320312-2.851562 17.984375-7.726562 25.175781 8.679687 5 16.429687 11.542969 22.535156 19.59375 9.410156-12.535156 15.191406-27.925781 15.191406-44.769531 0-41.351562-33.648438-75-75-75s-75 33.648438-75 75c0 16.84375 5.78125 32.234375 15.191406 44.769531 6.105469-8.050781 13.855469-14.59375 22.535156-19.59375zm0 0"/><path d="m165 271c-15.105469 0-28.703125 7.765625-36.960938 19.859375 10.957032 6.273437 23.460938 10.140625 36.960938 10.140625s26.003906-3.867188 36.960938-10.140625c-8.257813-12.09375-21.855469-19.859375-36.960938-19.859375zm0 0"/><path d="m180 226c0-8.277344-6.722656-15-15-15s-15 6.722656-15 15 6.722656 15 15 15 15-6.722656 15-15zm0 0"/><path d="m0 467c0 24.8125 20.1875 45 45 45h240c24.8125 0 45-20.1875 45-45v-15h-330zm0 0"/><path d="m285 0h-240c-24.8125 0-45 20.1875-45 45v15h330v-15c0-24.8125-20.1875-45-45-45zm0 0"/><path d="m0 422h330v-332h-330zm105-31c-8.285156 0-15-6.714844-15-15s6.714844-15 15-15 15 6.714844 15 15-6.714844 15-15 15zm60 0c-8.285156 0-15-6.714844-15-15s6.714844-15 15-15 15 6.714844 15 15-6.714844 15-15 15zm60 0c-8.285156 0-15-6.714844-15-15s6.714844-15 15-15 15 6.714844 15 15-6.714844 15-15 15zm-60-270c57.890625 0 105 47.109375 105 105 0 58.074219-48.882812 105-105 105-56.535156 0-105-47.226562-105-105 0-57.890625 47.109375-105 105-105zm0 0"/></svg>